<?xml version="1.0" standalone="no"?>
<!DOCTYPE svg PUBLIC "-//W3C//DTD SVG 20010904//EN"
 "http://www.w3.org/TR/2001/REC-SVG-20010904/DTD/svg10.dtd">
<svg version="1.0" xmlns="http://www.w3.org/2000/svg"
 width="1024.000000pt" height="1024.000000pt" viewBox="0 0 1024.000000 1024.000000"
 preserveAspectRatio="xMidYMid meet">

<g transform="translate(0.000000,1024.000000) scale(0.100000,-0.100000)"
fill="#000000" stroke="none">
<path d="M2560 8923 c-136 -12 -313 -64 -450 -133 -90 -45 -260 -157 -350
-230 -74 -59 -116 -83 -178 -100 -60 -16 -328 -13 -511 5 l-152 15 -53 44
c-62 50 -112 70 -177 69 -91 -1 -196 -82 -223 -173 -26 -88 1 -161 89 -236 30
-26 55 -54 55 -63 0 -25 71 -224 102 -286 85 -169 258 -347 479 -492 170 -111
278 -152 654 -248 118 -30 232 -63 254 -75 37 -19 41 -24 41 -59 0 -26 -14
-65 -41 -117 -264 -505 -362 -766 -362 -964 1 -114 25 -239 122 -620 84 -332
94 -386 122 -655 23 -228 22 -447 -2 -519 -20 -59 -100 -140 -172 -175 -66
-32 -156 -51 -247 -51 -148 0 -353 -98 -462 -219 -35 -39 -49 -65 -61 -113
-45 -181 -27 -264 68 -316 27 -15 89 -17 560 -20 292 -2 540 0 553 3 13 3 22
13 22 25 0 20 -8 20 -528 20 -313 0 -541 4 -561 10 -81 23 -102 82 -77 212 19
97 33 125 94 179 121 108 243 157 421 171 190 14 273 49 373 156 31 33 52 68
63 103 23 73 30 267 16 431 -28 317 -49 437 -130 758 -151 599 -155 656 -57
937 45 127 225 520 256 557 27 34 72 145 77 192 11 104 -12 117 -351 204 -275
70 -364 99 -472 151 -218 106 -469 325 -576 501 -44 71 -90 186 -120 299 -18
68 -26 82 -54 100 -132 81 -143 221 -25 303 87 61 174 51 253 -28 l44 -44 175
-16 c202 -19 453 -23 519 -7 76 17 114 37 221 119 154 116 221 159 338 218
190 94 329 128 526 127 221 -1 421 -45 600 -132 174 -84 242 -146 361 -326 57
-87 80 -110 194 -200 113 -89 241 -223 308 -324 119 -178 146 -317 97 -506
-39 -153 -146 -289 -275 -352 -70 -34 -216 -80 -225 -71 -13 13 -17 397 -6
683 12 329 5 516 -23 610 -20 65 -66 119 -130 152 -44 23 -66 28 -158 31 -173
7 -284 -35 -389 -145 -184 -193 -288 -503 -258 -772 29 -265 154 -461 354
-556 118 -56 197 -70 387 -70 l168 0 4 -40 c29 -243 46 -321 97 -431 93 -200
251 -370 639 -689 281 -231 500 -442 602 -579 227 -305 332 -714 345 -1343 5
-237 7 -263 22 -263 25 0 277 344 366 498 11 17 22 32 25 32 3 0 14 -24 24
-52 84 -239 317 -605 380 -596 20 3 21 7 16 103 -9 189 -2 528 14 655 43 339
133 535 346 750 108 109 123 123 310 276 323 266 417 372 487 544 31 76 47
145 58 255 l6 60 102 -3 c299 -9 494 126 558 388 18 76 16 240 -5 325 -34 142
-135 311 -224 376 -121 88 -332 90 -415 4 -61 -63 -62 -73 -62 -567 0 -245 -4
-450 -8 -454 -18 -19 -175 43 -229 90 -124 109 -175 312 -119 476 47 136 200
331 331 420 30 21 78 62 105 91 137 146 162 167 256 213 220 106 495 130 697
62 129 -44 231 -103 418 -241 90 -66 152 -79 334 -71 218 9 308 22 341 51 38
31 113 59 142 51 36 -9 78 -46 93 -83 12 -28 12 -38 0 -65 -14 -32 -52 -79
-79 -95 -7 -4 -30 -61 -51 -126 -23 -70 -54 -142 -78 -180 -99 -152 -322 -325
-503 -390 -38 -13 -144 -43 -234 -67 -197 -50 -268 -75 -281 -100 -22 -42 -11
-88 55 -213 145 -279 235 -519 235 -628 0 -72 -26 -206 -85 -434 -67 -260 -80
-334 -101 -555 -25 -272 -12 -362 67 -445 67 -71 126 -95 258 -106 121 -9 194
-39 275 -110 56 -49 68 -71 91 -166 19 -82 14 -110 -23 -125 -17 -6 -194 -12
-467 -15 -250 -2 -444 -8 -449 -14 -6 -6 -5 -14 2 -21 16 -16 528 -23 769 -10
182 9 209 19 227 81 11 37 -15 162 -45 222 -54 108 -240 209 -384 209 -81 0
-147 25 -204 76 -65 58 -75 94 -75 249 1 207 29 403 99 685 104 418 110 468
75 606 -31 120 -82 244 -186 451 -51 104 -94 198 -94 210 0 13 10 29 23 37 12
8 105 35 207 61 292 75 376 110 530 223 97 71 226 203 269 276 19 32 51 106
71 166 29 83 46 116 74 144 91 92 91 189 0 264 -67 55 -141 51 -234 -11 -41
-27 -58 -32 -175 -43 -149 -15 -281 -17 -342 -5 -46 9 -92 36 -208 121 -236
175 -447 241 -694 220 -145 -13 -259 -43 -381 -102 -98 -47 -112 -58 -215
-163 -60 -62 -135 -131 -165 -152 -128 -93 -272 -270 -325 -401 -98 -241 -7
-513 207 -623 20 -10 67 -27 105 -38 l68 -18 -3 -64 c-4 -94 -28 -193 -62
-267 -73 -157 -176 -263 -546 -566 -145 -120 -317 -294 -382 -389 -104 -151
-169 -327 -201 -542 -21 -142 -33 -394 -28 -560 l6 -170 -39 44 c-84 96 -235
386 -280 539 -13 41 -12 45 29 128 137 275 185 495 147 665 -9 41 -27 100 -40
132 l-24 57 57 51 c31 28 137 105 236 170 289 190 343 229 415 300 112 111
158 221 147 351 -14 168 -126 316 -280 372 -113 41 -276 16 -388 -59 l-50 -34
-73 74 c-53 54 -92 83 -142 107 -64 31 -76 33 -169 33 -89 -1 -107 -4 -157
-29 -89 -42 -161 -115 -205 -204 -37 -74 -38 -79 -38 -186 0 -108 1 -113 38
-190 47 -98 98 -171 253 -357 142 -170 241 -300 268 -351 l20 -36 -28 -34
c-113 -138 -146 -227 -153 -411 -6 -144 6 -263 43 -406 l25 -93 -32 -57 c-41
-73 -154 -241 -238 -355 l-66 -89 -6 204 c-10 295 -37 513 -95 748 -53 217
-135 401 -251 564 -80 113 -335 365 -533 527 -399 328 -512 433 -612 575 -119
167 -170 318 -192 566 l-6 66 40 7 c68 11 209 67 270 108 169 113 263 300 264
528 1 78 -4 119 -18 160 -65 190 -215 378 -450 566 -83 66 -111 96 -167 179
-95 140 -147 196 -243 260 -141 94 -309 156 -506 188 -102 17 -277 27 -350 20z
m990 -563 c117 -66 138 -191 119 -715 -6 -176 -9 -404 -5 -507 l6 -187 -57 -7
c-78 -9 -275 2 -352 21 -179 44 -318 160 -391 327 -92 210 -83 492 23 720 68
148 171 279 252 321 88 45 145 57 255 54 90 -2 111 -6 150 -27z m4208 -1210
c103 -44 214 -204 258 -370 38 -144 17 -330 -51 -453 -79 -140 -238 -212 -454
-205 l-94 3 -1 460 c-1 511 -2 507 65 558 45 33 60 36 149 33 51 -2 92 -10
128 -26z m-1926 -775 c75 -37 112 -68 166 -136 26 -32 53 -59 61 -59 8 0 29
11 48 26 18 14 63 39 100 57 92 42 210 50 295 17 197 -74 291 -316 198 -506
-48 -98 -152 -189 -422 -367 -128 -84 -264 -179 -303 -210 -60 -49 -71 -55
-80 -41 -41 67 -143 202 -246 324 -167 200 -234 292 -277 380 -35 71 -37 80
-37 175 0 113 17 164 81 242 103 126 279 167 416 98z m100 -1424 c31 -91 31
-250 -1 -369 -25 -96 -67 -205 -113 -295 l-32 -62 -12 41 c-25 86 -44 232 -44
344 0 180 37 297 129 406 32 39 40 32 73 -65z"/>
<path d="M2031 8366 c-24 -29 -25 -90 -2 -142 29 -64 55 -92 116 -120 64 -30
143 -32 200 -4 68 33 109 109 63 118 -10 2 -23 -9 -34 -27 -34 -58 -124 -78
-201 -46 -76 32 -107 82 -108 169 0 61 -12 79 -34 52z"/>
<path d="M8555 7089 c-4 -5 -2 -23 5 -39 40 -98 -105 -195 -188 -125 -17 14
-34 25 -40 25 -19 0 -22 -33 -5 -52 87 -96 262 -37 287 96 12 61 -35 135 -59
95z"/>
<path d="M3671 5319 c-278 -27 -584 -179 -765 -380 -299 -331 -402 -800 -269
-1224 50 -160 94 -233 118 -195 3 5 -10 51 -30 100 -20 50 -48 135 -62 188
-24 87 -26 115 -27 277 0 192 9 252 59 401 114 340 390 615 731 730 223 75
497 75 724 2 267 -86 521 -286 660 -517 73 -122 82 -133 99 -122 19 12 9 44
-36 118 -162 267 -390 456 -671 557 -154 55 -366 81 -531 65z"/>
<path d="M7145 4756 c-155 -37 -253 -92 -365 -205 -118 -119 -192 -261 -136
-261 8 0 31 31 52 70 107 204 328 345 559 357 464 24 800 -437 645 -886 -23
-64 -18 -90 13 -78 20 8 55 114 69 214 21 147 -15 328 -94 461 -18 32 -69 93
-113 137 -86 86 -176 141 -289 177 -81 26 -259 33 -341 14z"/>
<path d="M4250 4418 c-25 -41 -25 -48 -1 -48 18 0 71 56 71 73 0 4 -11 7 -25
7 -18 0 -31 -10 -45 -32z"/>
<path d="M3202 4283 c-16 -216 -18 -203 18 -203 l30 0 1 78 c1 69 15 162 18
120 0 -9 10 -57 22 -107 19 -83 23 -91 45 -91 25 0 27 5 58 139 8 34 17 66 20
69 3 3 6 -36 6 -86 0 -111 4 -122 42 -122 l30 0 -6 53 c-3 28 -8 109 -12 180
l-7 127 -37 0 -37 0 -22 -100 c-11 -56 -21 -111 -21 -123 -1 -40 -16 3 -40
116 l-23 107 -37 0 -36 0 -12 -157z"/>
<path d="M3571 4410 c-58 -58 -66 -223 -15 -294 44 -60 135 -51 170 16 22 42
30 160 14 217 -24 91 -108 121 -169 61z m90 -47 c15 -18 19 -148 6 -195 -9
-34 -41 -37 -58 -7 -14 27 -14 155 0 192 12 31 32 35 52 10z"/>
<path d="M3797 4433 c-3 -5 -5 -86 -6 -180 l-2 -173 36 0 37 0 -4 105 c-1 57
0 101 3 97 3 -4 23 -51 44 -104 38 -97 39 -98 72 -98 l33 0 0 180 0 180 -30 0
-29 0 -3 -112 -3 -111 -43 111 c-41 107 -45 112 -72 112 -16 0 -31 -3 -33 -7z"/>
<path d="M4070 4260 l0 -180 35 0 35 0 0 180 0 180 -35 0 -35 0 0 -180z"/>
<path d="M4398 4424 c-35 -18 -48 -43 -48 -90 0 -33 7 -45 56 -91 49 -45 56
-55 50 -79 -7 -25 -10 -26 -56 -22 -47 5 -48 4 -52 -24 -3 -15 -2 -30 0 -33 3
-3 32 -5 65 -5 53 0 62 3 88 31 22 24 29 41 29 72 0 37 -6 46 -55 92 -61 57
-71 91 -31 101 14 3 33 3 44 0 16 -5 21 -1 25 21 3 16 0 31 -6 35 -20 13 -80
8 -109 -8z"/>
<path d="M7955 3653 c-63 -32 -131 -141 -180 -287 -45 -136 -65 -264 -90 -585
-8 -107 -16 -196 -18 -197 -6 -6 -282 -62 -286 -58 -2 2 38 67 89 145 149 226
221 386 255 562 34 179 6 320 -80 395 -67 59 -163 37 -245 -55 -124 -139 -252
-563 -290 -958 -18 -188 -14 -178 -92 -268 -39 -45 -76 -82 -82 -82 -15 0 -43
88 -57 177 -13 85 -6 224 16 317 17 72 14 96 -17 104 -76 20 -142 -214 -119
-428 13 -126 42 -208 91 -257 32 -32 44 -38 81 -38 39 0 48 5 96 55 29 30 54
55 56 55 1 0 1 -66 -1 -147 -5 -241 26 -614 60 -718 11 -32 18 -40 38 -40 18
0 29 9 39 29 12 26 11 70 -4 325 -18 301 -15 644 6 665 8 9 409 115 437 116 8
0 1 -16 -18 -40 -37 -47 -37 -79 3 -98 19 -9 27 -21 27 -39 0 -14 7 -149 15
-301 15 -272 28 -400 47 -434 11 -23 55 -23 67 0 6 11 6 90 0 212 -5 107 -8
285 -7 394 l3 199 90 30 c208 68 401 140 427 159 16 10 28 28 28 39 0 31 -56
24 -290 -40 -118 -32 -216 -58 -218 -56 -2 2 17 34 41 71 63 98 221 417 246
497 46 152 66 371 40 458 -22 72 -99 140 -156 138 -10 0 -31 -7 -48 -16z
m-361 -107 c31 -30 50 -122 43 -202 -12 -122 -102 -359 -201 -527 -61 -105
-194 -287 -208 -287 -6 0 -7 17 -4 38 3 20 10 75 16 122 47 372 160 734 263
844 40 42 59 45 91 12z m463 -15 c38 -57 29 -217 -22 -386 -21 -70 -211 -463
-237 -490 -11 -11 -7 46 18 297 27 276 69 442 141 561 41 68 64 72 100 18z"/>
<path d="M5730 3618 c-45 -102 -75 -373 -90 -797 -6 -201 -13 -298 -22 -308
-22 -27 -253 -208 -288 -225 -53 -28 -95 -23 -135 14 -121 113 -20 433 165
528 51 26 77 25 125 -5 51 -31 73 -32 81 -1 15 63 -56 126 -143 126 -166 0
-342 -188 -388 -414 -9 -43 -21 -86 -28 -96 -23 -33 -261 -250 -270 -247 -21
7 -140 262 -145 308 -8 81 57 188 139 230 46 23 65 24 114 3 45 -18 65 -13 65
18 0 54 -60 98 -132 98 -118 -1 -244 -114 -284 -254 -32 -114 -6 -213 102
-398 l46 -78 -66 -72 c-36 -40 -80 -100 -98 -133 -31 -56 -33 -66 -33 -160 0
-84 4 -107 22 -140 63 -117 194 -160 295 -96 86 55 129 138 130 252 0 77 -12
125 -58 237 -19 45 -34 88 -34 95 0 8 33 43 73 78 41 35 91 87 113 116 21 29
41 52 44 53 3 0 13 -22 23 -49 37 -104 156 -169 263 -142 60 15 107 48 218
151 65 60 91 79 96 69 4 -8 15 -90 25 -184 23 -227 57 -335 105 -335 11 0 27
11 36 25 15 22 16 48 9 225 l-7 200 32 57 c65 116 244 361 271 371 12 5 12 9
-7 -270 -9 -132 -13 -250 -10 -264 8 -31 61 -64 105 -64 29 0 47 13 132 96 90
89 98 95 103 73 3 -13 14 -64 25 -114 11 -49 29 -115 40 -145 37 -98 112 -168
166 -154 32 8 28 23 -26 115 -45 77 -82 199 -98 319 -18 140 -17 174 8 209 38
53 147 292 179 391 84 261 125 507 102 614 -23 113 -95 149 -172 86 -145 -120
-266 -594 -257 -1006 l3 -121 -36 -49 c-20 -27 -60 -71 -89 -99 l-51 -50 6 60
c4 33 13 116 21 185 19 162 19 273 0 309 -8 16 -28 34 -46 40 -40 14 -94 -10
-153 -66 -50 -49 -172 -202 -222 -278 l-39 -60 -3 185 c-4 212 11 468 39 685
31 243 24 295 -42 295 -26 0 -33 -6 -49 -42z m993 -95 c13 -78 -40 -349 -104
-529 -33 -95 -104 -254 -113 -254 -6 0 -2 61 15 215 25 229 92 485 149 564 17
22 34 41 39 41 5 0 11 -17 14 -37z m-1972 -1621 c10 -29 21 -75 25 -102 16
-120 -72 -225 -158 -189 -66 27 -90 162 -45 251 13 25 45 73 72 106 l50 62 19
-37 c10 -20 27 -61 37 -91z"/>
<path d="M2955 3591 c-55 -25 -136 -118 -180 -207 -68 -138 -126 -435 -143
-743 l-8 -144 -72 -67 c-40 -36 -72 -72 -72 -78 0 -17 30 -42 51 -42 11 0 35
7 54 14 42 18 41 21 49 -139 5 -98 56 -580 72 -677 7 -43 24 -61 56 -56 52 7
56 72 22 427 -33 350 -43 496 -34 505 8 8 310 85 338 86 8 0 12 -18 12 -58 0
-114 56 -229 125 -258 98 -40 205 3 336 138 l86 88 18 -73 c41 -171 73 -217
152 -224 60 -5 92 14 201 118 l79 76 22 -81 c35 -130 121 -261 189 -287 29
-11 33 -11 51 0 11 7 8 17 -16 52 -61 89 -102 189 -128 312 -27 124 -23 146
49 266 85 142 142 258 209 426 82 207 100 292 95 437 -3 99 -7 122 -25 145
-62 84 -152 45 -245 -106 -128 -208 -200 -493 -216 -847 -7 -157 -8 -159 -39
-205 -42 -60 -191 -199 -214 -199 -10 0 -23 8 -28 18 -14 26 -61 216 -61 246
0 13 49 121 109 238 127 249 169 349 211 513 40 154 45 270 13 331 -21 40 -56
64 -93 64 -47 0 -149 -128 -211 -266 -80 -179 -116 -349 -131 -621 l-12 -213
-74 -80 c-74 -80 -157 -144 -220 -170 -66 -26 -106 21 -118 138 l-6 58 54 17
c67 21 163 82 201 127 42 49 77 125 77 164 0 52 -18 82 -60 101 -104 47 -270
-74 -339 -247 -22 -55 -25 -57 -64 -63 -159 -21 -265 -37 -282 -42 -18 -5 -18
-4 -5 14 106 146 137 194 184 288 102 204 172 462 164 606 -6 97 -36 165 -84
185 -43 18 -50 17 -99 -5z m1050 -104 c14 -73 -42 -311 -114 -483 -41 -99
-143 -304 -152 -304 -4 0 -5 28 -3 63 18 277 110 574 223 725 31 40 39 40 46
-1z m-974 -29 c25 -93 -27 -313 -126 -539 -38 -87 -139 -259 -152 -259 -2 0
-2 30 2 68 39 417 94 628 194 732 49 52 67 51 82 -2z m1450 20 c16 -30 5 -165
-22 -258 -44 -151 -198 -502 -253 -575 -15 -19 -15 -19 -16 12 0 56 39 335 59
418 39 162 122 346 182 406 25 25 36 24 50 -3z m-1031 -726 c0 -55 -117 -169
-192 -187 l-27 -7 16 42 c19 48 84 125 128 151 39 25 75 25 75 1z"/>
<path d="M6881 3075 c-54 -62 -31 -148 40 -148 26 0 40 8 66 38 58 67 36 145
-41 145 -26 0 -41 -8 -65 -35z"/>
</g>
</svg>
